<svg width="22" height="25" viewBox="0 0 22 25" fill="none" xmlns="http://www.w3.org/2000/svg">
<g clip-path="url(#clip0_13_110)">
<path d="M8.36764 0.0517521C6.82663 0.335081 5.54836 0.999437 4.52271 2.04971C3.93157 2.65544 3.2899 3.59824 3.2899 3.86691C3.2899 4.04277 3.47684 4.23329 3.64863 4.23329C3.88609 4.23329 3.98714 4.15513 4.14377 3.85226C4.38124 3.39796 4.79554 2.86549 5.2351 2.45027C7.09947 0.677029 9.91369 0.227612 12.2075 1.34138C13.3443 1.8885 14.3902 2.8948 14.946 3.96461C15.8503 5.69878 15.7998 7.8042 14.8045 9.77772C13.9759 11.4337 12.6673 12.6696 10.8585 13.5147C10.1562 13.842 9.70654 14.0032 9.49434 14.0032C9.13561 14.0032 7.85228 13.4219 6.99842 12.8748C6.26076 12.401 5.26037 11.4386 4.79049 10.7547C4.22461 9.92427 3.81536 9.00101 3.58295 8.01913C3.45158 7.45736 3.40611 6.35336 3.48695 5.79647C3.54758 5.42033 3.54253 5.38125 3.45158 5.26401C3.31516 5.08327 3.11307 5.02465 2.94633 5.11746C2.76444 5.21516 2.68866 5.51315 2.64824 6.28497C2.49666 9.45532 4.45197 12.5622 7.56429 14.0863L8.12512 14.3647L8.02407 14.5845C7.86744 14.9265 7.85228 15.3466 7.98365 15.6446C8.14533 16.0061 8.53437 16.348 8.96383 16.4946L9.10024 16.5434V20.637C9.10024 24.7111 9.10024 24.7355 9.20635 24.8674C9.33771 25.0286 9.65096 25.0481 9.80759 24.8967C9.90864 24.799 9.90864 24.7355 9.90864 20.681V16.5678L10.2017 16.4359C10.6008 16.2552 10.8383 16.05 10.9899 15.752C11.1566 15.4296 11.1667 14.9998 11.0202 14.6285C10.9646 14.4917 10.9242 14.3745 10.9343 14.3696C10.9393 14.3647 11.1718 14.2475 11.4496 14.1058C13.8041 12.9041 15.4158 11.0234 16.0929 8.68838C16.4617 7.42805 16.4718 5.94303 16.1282 4.74621C15.5876 2.87527 14.0668 1.2388 12.162 0.471859C11.3031 0.120142 10.7777 0.0224419 9.68128 0.00290298C9.02446 -0.00686646 8.61016 0.0077877 8.36764 0.0517521ZM9.46908 14.7702L9.75707 14.7995V14.9656C9.75707 15.1903 9.63075 15.4345 9.4236 15.6104C9.2215 15.7814 9.11035 15.7667 8.86783 15.5322C8.67078 15.3417 8.65058 15.1903 8.77689 14.8776C8.85773 14.692 8.87288 14.6773 9.01941 14.7067C9.1053 14.7262 9.3074 14.7506 9.46908 14.7702Z" fill="#1DA1F2"/>
<path d="M15.9211 14.5738C15.5826 14.608 14.8904 14.7937 14.4963 14.9549C13.9052 15.1991 13.3898 15.5264 12.8947 15.9856C12.1772 16.6451 11.6922 17.4169 11.3941 18.3743C11.2627 18.7847 11.2526 18.8775 11.2526 19.7421C11.2476 20.5677 11.2627 20.7142 11.3638 21.0855C11.8892 22.9516 13.3342 24.3487 15.2643 24.8567C15.6432 24.9544 15.8049 24.9691 16.6284 24.9691C17.4368 24.9642 17.6238 24.9495 17.9926 24.8567C18.8364 24.6369 19.9025 24.0458 20.3875 23.528C20.5492 23.3521 20.5744 23.2984 20.5492 23.1665C20.5138 23.0004 20.4128 22.9076 20.2208 22.8587C20.0742 22.8246 19.9883 22.8734 19.5286 23.2495C19.1143 23.5915 18.3311 23.9774 17.7653 24.124C17.2196 24.2607 16.1687 24.2754 15.618 24.1484C13.8395 23.7429 12.5461 22.4973 12.0964 20.7533C11.965 20.2551 11.9802 19.1804 12.1267 18.6674C12.248 18.2327 12.5511 17.5879 12.7936 17.2459C13.4403 16.3373 14.5519 15.6241 15.6735 15.3945C16.204 15.2871 17.159 15.2968 17.6895 15.4189C19.1345 15.756 20.2915 16.7183 20.8978 18.091C21.3424 19.0924 21.3424 20.426 20.8978 21.4812C20.7614 21.8085 20.7664 21.9208 20.9382 22.0967C21.0595 22.2237 21.2565 22.2432 21.4131 22.1358C21.5344 22.0527 21.7213 21.6033 21.8881 21.0122C21.9841 20.6849 21.9992 20.4895 21.9992 19.791C22.0043 19.0436 21.9891 18.9117 21.8679 18.472C21.1555 15.9026 18.6899 14.2807 15.9211 14.5738Z" fill="white"/>
<path d="M13.9506 17.4716C13.895 17.5253 13.8394 17.6181 13.8243 17.6767C13.8091 17.7402 13.799 18.5169 13.8091 19.406C13.8243 20.9203 13.8293 21.0327 13.9203 21.1304C14.0314 21.2525 14.2891 21.2672 14.4356 21.1646C14.5266 21.1011 14.5316 21.0132 14.5569 20.0117L14.5822 18.9273L15.1834 19.7773C16.2545 21.2769 16.2798 21.3014 16.593 21.1793C16.8558 21.0718 16.8659 20.9741 16.8406 19.2106C16.8204 17.6035 16.8204 17.6035 16.6991 17.4862C16.5577 17.3494 16.3758 17.3397 16.2192 17.4667C16.0979 17.5595 16.0979 17.579 16.0726 18.6244L16.0474 19.6844L15.2743 18.6049C14.8499 18.0138 14.4558 17.4911 14.3952 17.4471C14.2436 17.3445 14.0719 17.3543 13.9506 17.4716Z" fill="#1DA1F2"/><path d="M18.0027 19.2399C17.7753 19.3132 17.452 19.6698 17.4065 19.8896C17.3206 20.3488 17.8966 20.5393 18.1239 20.1241C18.2351 19.9189 18.417 19.8701 18.518 20.0215C18.5938 20.1387 18.4928 20.3146 17.9471 21.0376C17.452 21.6922 17.3913 21.8729 17.5833 22.0585C17.7854 22.2539 19.1092 22.2539 19.3113 22.0585C19.4325 21.9413 19.4325 21.7166 19.3113 21.57C19.2405 21.4821 19.1546 21.4577 18.9121 21.4381L18.6039 21.4186L18.8565 21.0864C19.3163 20.4758 19.4073 20.0997 19.2052 19.6893C19.0031 19.2888 18.4675 19.0885 18.0027 19.2399Z" fill="#1DA1F2"/>
</g>
<defs>
<clipPath id="clip0_13_110">
<rect width="22" height="25" fill="white"/>
</clipPath>
</defs>
</svg>